<svg width="274" height="274" viewBox="0 0 274 274" fill="none" xmlns="http://www.w3.org/2000/svg">
<rect width="274" height="274" fill="white"/>
<rect width="274" height="274" fill="#B9EBE8"/>
<rect width="274" height="111" fill="#82E8E2"/>
<rect x="45" y="24" width="186" height="191" rx="6" fill="#A9EDAC"/>
<rect x="45" y="84" width="186" height="131" rx="6" fill="#94EB97"/>
<path d="M91.11 103.1C91.0511 102.511 91.5134 102 92.105 102H182.895C183.487 102 183.949 102.511 183.89 103.1L182.09 121.1C182.039 121.611 181.609 122 181.095 122H93.905C93.3912 122 92.9611 121.611 92.91 121.1L91.11 103.1Z" fill="#1FC126"/>
<path d="M93 122H182L274 274H0L93 122Z" fill="#F8EBD1" fill-opacity="0.33"/>
<path d="M115.667 233.608C110.739 233.608 106.771 232.264 103.763 229.576C100.755 226.888 99.2508 222.92 99.2508 217.672C99.2508 215.56 99.4108 213.608 99.7308 211.816C100.051 210.024 100.371 208.232 100.691 206.44C101.075 204.584 101.267 202.536 101.267 200.296C101.267 198.12 100.563 196.2 99.1548 194.536C97.8108 192.808 95.3468 191.72 91.7628 191.272V181.384C95.3468 180.936 97.8108 179.912 99.1548 178.312C100.563 176.648 101.267 174.664 101.267 172.36C101.267 170.184 101.075 168.2 100.691 166.408C100.371 164.552 100.051 162.728 99.7308 160.936C99.4108 159.144 99.2508 157.16 99.2508 154.984C99.2508 149.8 100.755 145.864 103.763 143.176C106.771 140.488 110.739 139.144 115.667 139.144H121.715V149.32H117.971C113.363 149.32 111.059 151.592 111.059 156.136C111.059 158.632 111.347 161.16 111.923 163.72C112.563 166.216 112.883 169.256 112.883 172.84C112.883 176.232 112.051 179.144 110.387 181.576C108.723 183.944 106.067 185.512 102.419 186.28V186.472C106.067 187.24 108.723 188.84 110.387 191.272C112.051 193.64 112.883 196.52 112.883 199.912C112.883 203.496 112.563 206.568 111.923 209.128C111.347 211.624 111.059 214.12 111.059 216.616C111.059 221.16 113.363 223.432 117.971 223.432H121.715V233.608H115.667ZM162.342 233.608C167.27 233.608 171.238 232.264 174.246 229.576C177.254 226.888 178.758 222.92 178.758 217.672C178.758 215.56 178.598 213.608 178.278 211.816C177.958 210.024 177.606 208.232 177.222 206.44C176.902 204.584 176.742 202.536 176.742 200.296C176.742 198.12 177.414 196.2 178.758 194.536C180.166 192.808 182.662 191.72 186.246 191.272V181.384C182.662 180.936 180.166 179.912 178.758 178.312C177.414 176.648 176.742 174.664 176.742 172.36C176.742 170.184 176.902 168.2 177.222 166.408C177.606 164.552 177.958 162.728 178.278 160.936C178.598 159.144 178.758 157.16 178.758 154.984C178.758 149.8 177.254 145.864 174.246 143.176C171.238 140.488 167.27 139.144 162.342 139.144H156.294V149.32H160.038C164.646 149.32 166.95 151.592 166.95 156.136C166.95 158.632 166.63 161.16 165.99 163.72C165.414 166.216 165.126 169.256 165.126 172.84C165.126 176.232 165.958 179.144 167.622 181.576C169.286 183.944 171.942 185.512 175.59 186.28V186.472C171.942 187.24 169.286 188.84 167.622 191.272C165.958 193.64 165.126 196.52 165.126 199.912C165.126 203.496 165.414 206.568 165.99 209.128C166.63 211.624 166.95 214.12 166.95 216.616C166.95 221.16 164.646 223.432 160.038 223.432H156.294V233.608H162.342Z" fill="#FC6F6F"/>
<rect x="76" y="56" width="144" height="9" rx="2" fill="#E9F6EA" fill-opacity="0.4"/>
<path d="M126 40C126 38.8954 126.895 38 128 38H218C219.105 38 220 38.8954 220 40V45C220 46.1046 219.105 47 218 47H128C126.895 47 126 46.1046 126 45V40Z" fill="#F4FAF5" fill-opacity="0.5"/>
</svg>
